Coordinates
version=1
nRows=8
nColumns=40
inDegrees=yes

Units are S.I. units (second, meters, Newtons, ...)
If the header above contains a line with 'inDegrees', this indicates whether rotational values are in degrees (yes) or radians (no).

endheader
time	pelvis_tilt	pelvis_list	pelvis_rotation	pelvis_tx	pelvis_ty	pelvis_tz	hip_flexion_r	hip_adduction_r	hip_rotation_r	knee_angle_r	knee_angle_r_beta	ankle_angle_r	subtalar_angle_r	mtp_angle_r	hip_flexion_l	hip_adduction_l	hip_rotation_l	knee_angle_l	knee_angle_l_beta	ankle_angle_l	subtalar_angle_l	mtp_angle_l	lumbar_extension	lumbar_bending	lumbar_rotation	arm_flex_r	arm_add_r	arm_rot_r	elbow_flex_r	pro_sup_r	wrist_flex_r	wrist_dev_r	arm_flex_l	arm_add_l	arm_rot_l	elbow_flex_l	pro_sup_l	wrist_flex_l	wrist_dev_l
      3.85833333	    -13.58285571	     -3.59747307	      3.40287164	     -0.36784282	      1.14371131	      0.05256658	     78.51166867	     -6.24996935	     -2.23252575	     78.91398638	      1.37730889	     -6.31196314	    -12.14738734	      0.00000000	     63.47692170	    -10.63825179	      6.73552904	     89.22092843	      1.55719896	     -4.34116451	     -0.16320023	      0.00000000	    -43.20473815	      4.89326327	      5.50217720	     89.85624124	    -12.85128425	     32.66026935	     21.08569056	     87.47366175	      0.00000000	      0.00000000	     88.54185084	     -1.82214076	     33.34967618	     16.05768398	     86.26356512	      0.00000000	      0.00000000
      3.86666667	    -13.53051033	     -3.31048281	      3.32362818	     -0.36744303	      1.14385938	      0.05210349	     77.18584944	     -6.26675682	     -2.24031393	     76.97322605	      1.34343623	     -7.16038974	    -12.13547966	      0.00000000	     64.19656418	    -10.47418259	      6.72137981	     90.88457160	      1.58623501	     -3.69064753	     -0.06410199	      0.00000000	    -43.25785552	      4.59529632	      5.33075678	     89.85571495	    -12.82862065	     32.70698333	     20.96465139	     87.47508577	      0.00000000	      0.00000000	     88.53431849	     -1.80254353	     33.23703767	     16.08837749	     86.37440342	      0.00000000	      0.00000000
      3.87500000	    -13.29825555	     -3.54617737	      3.03101228	     -0.36680919	      1.14417472	      0.05248073	     75.51884257	     -5.72605596	     -2.75407447	     74.88195375	      1.30693664	     -8.05538218	    -12.90845121	      0.00000000	     64.98857320	    -10.98421655	      7.11730028	     92.70903213	      1.61807786	     -2.98031369	      0.61460208	      0.00000000	    -43.50335182	      4.54928837	      5.76592526	     89.85395760	    -12.95216697	     32.82330415	     20.96572311	     87.44837892	      0.00000000	      0.00000000	     88.48577394	     -1.70799344	     33.01116194	     16.16093647	     86.58224881	      0.00000000	      0.00000000
      3.88333333	    -13.30767162	     -3.09309115	      3.04598040	     -0.36648655	      1.14433053	      0.05188919	     74.17943659	     -5.88024292	     -2.63032199	     72.93123941	      1.27289026	     -8.40088644	    -12.93388142	      0.00000000	     65.83325463	    -10.64002454	      6.96723581	     94.31202566	      1.64605537	     -2.68511074	      0.72960074	      0.00000000	    -43.49767412	      4.16519505	      5.40614037	     89.85237557	    -12.91351360	     32.82847260	     20.79447983	     87.45224901	      0.00000000	      0.00000000	     88.48467854	     -1.69720254	     33.02380756	     16.17892037	     86.60157800	      0.00000000	      0.00000000
      3.89166667	    -13.27307841	     -2.71668179	      3.00225943	     -0.36611957	      1.14455399	      0.05143657	     72.79214902	     -5.95329993	     -2.53224654	     70.99324682	      1.23906590	     -9.04216610	    -12.90547922	      0.00000000	     66.66550155	    -10.39491105	      6.88900062	     95.89270737	      1.67364347	     -2.24184618	      0.85119651	      0.00000000	    -43.53667096	      3.80475147	      5.17534459	     89.84948329	    -12.91465734	     32.85378600	     20.64888743	     87.45160637	      0.00000000	      0.00000000	     88.44650657	     -1.69046931	     33.02584062	     16.25890251	     86.62263937	      0.00000000	      0.00000000
      3.90000000	    -13.17169965	     -2.61466028	      2.71175341	     -0.36570963	      1.14483456	      0.05125975	     71.22303259	     -5.73639636	     -2.82507995	     68.74265713	      1.19978570	    -10.32158147	    -13.04498617	      0.00000000	     67.50174301	    -10.56594096	      6.94347582	     97.59041583	      1.70327407	     -1.40858750	      0.98395072	      0.00000000	    -43.66068371	      3.51922112	      5.30103115	     89.85065322	    -12.95821443	     32.93033463	     20.60913430	     87.42830936	      0.00000000	      0.00000000	     88.41296943	     -1.68058415	     33.00711799	     16.35382227	     86.65403564	      0.00000000	      0.00000000
      3.90833333	    -12.99722797	     -2.64762919	      2.51689655	     -0.36514342	      1.14522586	      0.05129014	     69.60110953	     -5.45256880	     -3.17034181	     66.79318542	      1.16576100	    -11.02703124	    -13.56168575	      0.00000000	     68.34826867	    -10.74598628	      7.25526681	     99.17829505	      1.73098780	     -0.89289898	      1.51517897	      0.00000000	    -43.85004946	      3.37409368	      5.49783128	     89.84936655	    -13.03462485	     33.03517976	     20.55683601	     87.40233143	      0.00000000	      0.00000000	     88.40534814	     -1.59613934	     32.97891342	     16.37476128	     86.67836508	      0.00000000	      0.00000000
      3.91666667	    -13.02280786	     -2.22266044	      2.49070471	     -0.36477787	      1.14531328	      0.05074457	     68.25080695	     -5.60217045	     -3.07190177	     64.99670004	      1.13440642	    -11.09635342	    -13.67307552	      0.00000000	     69.27956838	    -10.47752197	      7.08427955	    100.68174225	      1.75722790	     -0.56853826	      1.62622462	      0.00000000	    -43.82912430	      2.98278324	      5.19391421	     89.84647048	    -13.03827741	     33.05351441	     20.44679054	     87.40302965	      0.00000000	      0.00000000	     88.41714400	     -1.56455807	     33.02043111	     16.34188184	     86.68632165	      0.00000000	      0.00000000
